<svg width="466" height="161" viewBox="0 0 466 161" fill="none" xmlns="http://www.w3.org/2000/svg">
<path d="M51.9003 11.6767C42.2587 -0.76478 24.3568 -3.03452 11.9153 6.60709C-0.52618 16.2487 -2.79592 34.1506 6.8457 46.5921L51.9003 11.6767ZM6.8457 46.5921C43.9393 94.4575 122.382 144.97 208.784 157.222C252.657 163.443 299.64 159.954 344.727 140.273C389.987 120.516 431.544 85.216 465.508 30.741L417.14 0.583675C388.58 46.3899 355.491 73.3798 321.923 88.0329C288.184 102.761 252.159 105.802 216.786 100.786C144.694 90.5635 79.6855 47.5306 51.9003 11.6767L6.8457 46.5921Z" fill="#0F7B42"/>
</svg>
