<svg width="453" height="205" viewBox="0 0 453 205" fill="none" xmlns="http://www.w3.org/2000/svg">
<path d="M406.148 100.234C418.536 90.5242 436.451 92.6949 446.161 105.083C455.871 117.471 453.7 135.385 441.312 145.095L406.148 100.234ZM441.312 145.095C393.653 182.453 305.249 212.28 218.472 203.061C174.407 198.38 129.699 183.523 90.7833 153.427C51.7191 123.215 20.0405 78.8361 0.407444 17.7161L54.6763 0.283701C71.1852 51.6775 96.6813 85.9308 125.654 108.338C154.776 130.859 188.967 142.606 224.494 146.38C296.9 154.072 370.449 128.218 406.148 100.234L441.312 145.095Z" fill="#0F7B42"/>
</svg>
